<?xml version="1.0" standalone="no"?>
<!DOCTYPE svg PUBLIC "-//W3C//DTD SVG 20010904//EN"
 "http://www.w3.org/TR/2001/REC-SVG-20010904/DTD/svg10.dtd">
<svg version="1.0" xmlns="http://www.w3.org/2000/svg"
 width="180.000000pt" height="180.000000pt" viewBox="0 0 180.000000 180.000000"
 preserveAspectRatio="xMidYMid meet">
<metadata>
Created by potrace 1.11, written by Peter Selinger 2001-2013
</metadata>
<g transform="translate(0.000000,180.000000) scale(0.100000,-0.100000)"
fill="#000000" stroke="none">
<path d="M0 900 l0 -900 900 0 900 0 0 900 0 900 -900 0 -900 0 0 -900z m370
298 l1 -173 63 68 62 67 133 0 133 0 -91 -99 c-50 -54 -91 -104 -91 -111 0 -6
41 -90 90 -184 50 -95 90 -176 90 -180 0 -3 -53 -6 -117 -6 l-118 0 -54 102
-54 101 -24 -27 c-22 -26 -23 -34 -23 -187 l0 -159 -105 0 -105 0 0 480 0 480
105 0 105 0 0 -172z m877 -48 c17 -10 37 -29 43 -41 12 -21 12 -21 43 9 42 40
75 52 146 52 70 0 114 -26 145 -85 19 -37 21 -60 24 -272 l3 -233 -105 0 -106
0 0 183 c0 203 -5 221 -55 215 -48 -5 -55 -32 -55 -225 l0 -173 -105 0 -105 0
0 173 c0 189 -7 220 -51 225 -48 6 -54 -15 -59 -212 l-5 -181 -107 -3 -108 -3
0 291 0 290 100 0 100 0 0 -25 c0 -26 14 -33 26 -14 30 49 169 67 231 29z"/>
</g>
</svg>
